<svg width="48" height="48" xmlns="http://www.w3.org/2000/svg"><g fill="none" fill-rule="evenodd"><path d="M41.998 8.5a3.49 3.49 0 012.477 1.026 3.494 3.494 0 011.025 2.478h0v23.992c0 .967-.392 1.843-1.026 2.477a3.49 3.49 0 01-2.476 1.027h0H6.002a3.49 3.49 0 01-2.477-1.026A3.494 3.494 0 012.5 35.996h0V12.004c0-.967.392-1.843 1.026-2.477A3.49 3.49 0 016.002 8.5h35.996z" stroke="#E6E7E8" fill="#FFF"/><path d="M29.592 20.531c1.458 0 2.833 1.266 2.841 3.59 0 2.539-1.358 3.692-2.85 3.692-.733 0-1.175-.296-1.475-.505l-.008 2.267-2.083.425v-9.34h1.833l.108.496a2.402 2.402 0 011.634-.625zm-12.85-1.602l-.009 1.739h1.584v1.706h-1.584v2.844c0 1.185 1.317.817 1.584.713v1.626c-.275.144-.775.264-1.459.264-1.233 0-2.158-.873-2.158-2.059l.008-6.416 2.034-.417zm-4.925 1.602c.691 0 1.375.105 2.066.369v1.882a4.797 4.797 0 00-2.066-.512c-.442 0-.709.12-.709.432 0 .897 3.175.473 3.184 2.86 0 1.434-1.192 2.26-2.925 2.26-.717 0-1.5-.137-2.275-.458v-1.906c.7.368 1.583.64 2.275.64.466 0 .8-.12.8-.488 0-.953-3.167-.6-3.167-2.812 0-1.417 1.125-2.267 2.817-2.267zm24.175 0c1.975 0 3.008 1.619 3.008 3.67 0 .192-.017.608-.017.712h-4.075c.092.945.809 1.218 1.617 1.218.825 0 1.475-.168 2.042-.44v1.601c-.567.305-1.317.521-2.309.521-2.033 0-3.45-1.218-3.45-3.629 0-2.034 1.2-3.653 3.184-3.653zm-10.75.137v7.009H23.15v-7.01h2.092zm-4.334.592c.492-.865 1.467-.689 1.734-.592v1.842c-.259-.088-1.092-.2-1.584.417v4.75h-2.083v-7.01h1.8zm8.184 1.05c-.475 0-.775.16-.992.392l.008 2.972c.2.209.492.377.984.377.766 0 1.283-.801 1.283-1.875 0-1.05-.525-1.866-1.283-1.866zm6.891-.152c-.525 0-1.1.376-1.1 1.281h2.15c0-.905-.541-1.281-1.05-1.281zM25.242 18v1.626l-2.092.433v-1.634L25.242 18z" fill="#6772E5"/></g></svg>